<svg width="944" height="170" viewBox="0 0 944 170" fill="none" xmlns="http://www.w3.org/2000/svg">
<path d="M4.43843 166.6C1.74055 166.6 -0.183634 163.984 0.620018 161.408L49.0502 6.20847C49.5715 4.53777 51.1184 3.4 52.8686 3.4H86.5816C88.3318 3.4 89.8787 4.53777 90.4 6.20846L138.83 161.408C139.634 163.984 137.71 166.6 135.012 166.6H115.563C113.818 166.6 112.274 165.468 111.749 163.804L67.3293 23.0668C66.8768 21.6334 67.9471 20.1733 69.4502 20.1733C70.9501 20.1733 72.0199 21.6276 71.5735 23.0594L27.6948 163.791C27.1738 165.462 25.6267 166.6 23.8762 166.6H4.43843ZM31.3798 131.24C29.1706 131.24 27.3798 129.449 27.3798 127.24V109.74C27.3798 107.531 29.1706 105.74 31.3798 105.74H108.183C110.392 105.74 112.183 107.531 112.183 109.74V127.24C112.183 129.449 110.392 131.24 108.183 131.24H31.3798Z" fill="url(#paint0_linear_761_18406)" fill-opacity="0.2"/>
<path d="M164.731 166.6C162.522 166.6 160.731 164.809 160.731 162.6V7.39999C160.731 5.19086 162.522 3.4 164.731 3.4H185.933C187.285 3.4 188.546 4.08348 189.284 5.21677L255.681 107.147C257.853 110.482 263.033 108.944 263.033 104.964V7.4C263.033 5.19086 264.823 3.4 267.033 3.4H286.403C288.612 3.4 290.403 5.19086 290.403 7.4V162.6C290.403 164.809 288.612 166.6 286.403 166.6H265.201C263.848 166.6 262.587 165.917 261.849 164.783L195.453 62.8527C193.28 59.5181 188.101 61.0563 188.101 65.036V162.6C188.101 164.809 186.31 166.6 184.101 166.6H164.731Z" fill="url(#paint1_linear_761_18406)" fill-opacity="0.2"/>
<path d="M364.572 166.6C362.363 166.6 360.572 164.809 360.572 162.6V33.0133C360.572 30.8042 358.781 29.0133 356.572 29.0133H312.3C310.09 29.0133 308.3 27.2225 308.3 25.0133V7.39999C308.3 5.19086 310.09 3.4 312.3 3.4H435.879C438.088 3.4 439.879 5.19086 439.879 7.4V25.0133C439.879 27.2225 438.088 29.0133 435.879 29.0133H391.606C389.397 29.0133 387.606 30.8042 387.606 33.0133V162.6C387.606 164.809 385.815 166.6 383.606 166.6H364.572Z" fill="url(#paint2_linear_761_18406)" fill-opacity="0.2"/>
<path d="M464.057 166.6C461.848 166.6 460.057 164.809 460.057 162.6V7.39999C460.057 5.19086 461.848 3.4 464.057 3.4H483.091C485.3 3.4 487.091 5.19086 487.091 7.4V162.6C487.091 164.809 485.3 166.6 483.091 166.6H464.057Z" fill="url(#paint3_linear_761_18406)" fill-opacity="0.2"/>
<path d="M524.692 166.6C522.483 166.6 520.692 164.809 520.692 162.6V7.39999C520.692 5.19086 522.483 3.4 524.692 3.4H584.743C595.661 3.4 604.598 5.62889 611.552 10.0867C618.582 14.4689 623.779 20.0978 627.144 26.9733C630.584 33.8489 632.304 40.9511 632.304 48.28C632.304 57.2711 630.173 64.9022 625.911 71.1733C622.271 76.6242 617.472 80.5338 611.516 82.9022C610.159 83.4416 608.748 82.3951 608.748 80.9351C608.748 79.5357 610.052 78.4974 611.397 78.8832C620.266 81.4269 627.086 86.0725 631.856 92.82C637.165 100.224 639.82 108.649 639.82 118.093C639.82 127.764 637.988 136.227 634.323 143.48C630.659 150.733 625.2 156.4 617.946 160.48C610.767 164.56 601.868 166.6 591.249 166.6H524.692ZM548.063 136.873C548.063 139.082 549.853 140.873 552.063 140.873H587.884C592.595 140.873 596.82 139.929 600.559 138.04C604.299 136.076 607.215 133.356 609.309 129.88C611.478 126.329 612.562 122.136 612.562 117.3C612.562 112.918 611.627 108.989 609.758 105.513C607.888 102.038 605.159 99.28 601.569 97.24C597.979 95.1245 593.679 94.0667 588.669 94.0667H552.063C549.853 94.0667 548.063 95.8575 548.063 98.0667V136.873ZM548.063 64.5667C548.063 66.7758 549.853 68.5667 552.063 68.5667H584.407C588.295 68.5667 591.773 67.8111 594.839 66.3C597.905 64.7889 600.335 62.56 602.13 59.6133C603.925 56.6667 604.822 53.04 604.822 48.7333C604.822 43.0667 603.027 38.3444 599.438 34.5667C595.848 30.7889 590.838 28.9 584.407 28.9H552.063C549.853 28.9 548.063 30.6909 548.063 32.9V64.5667Z" fill="url(#paint4_linear_761_18406)" fill-opacity="0.2"/>
<path d="M730.536 170C714.383 170 700.549 166.449 689.032 159.347C677.516 152.169 668.654 142.196 662.447 129.427C656.315 116.658 653.249 101.849 653.249 85C653.249 68.1511 656.315 53.3422 662.447 40.5733C668.654 27.8044 677.516 17.8689 689.032 10.7667C700.549 3.58888 714.383 0 730.536 0C746.689 0 760.524 3.58888 772.041 10.7667C783.632 17.8689 792.493 27.8044 798.625 40.5733C804.832 53.3422 807.936 68.1511 807.936 85C807.936 101.849 804.832 116.658 798.625 129.427C792.493 142.196 783.632 152.169 772.041 159.347C760.524 166.449 746.689 170 730.536 170ZM730.536 144.273C741.38 144.349 750.391 141.931 757.57 137.02C764.824 132.109 770.246 125.196 773.835 116.28C777.5 107.364 779.332 96.9378 779.332 85C779.332 73.0622 777.5 62.7111 773.835 53.9467C770.246 45.1067 764.824 38.2311 757.57 33.32C750.391 28.4089 741.38 25.8778 730.536 25.7267C719.693 25.6511 710.682 28.0689 703.503 32.98C696.324 37.8911 690.902 44.8044 687.238 53.72C683.648 62.6356 681.853 73.0622 681.853 85C681.853 96.9378 683.648 107.327 687.238 116.167C690.827 124.931 696.211 131.769 703.391 136.68C710.644 141.591 719.693 144.122 730.536 144.273Z" fill="url(#paint5_linear_761_18406)" fill-opacity="0.2"/>
<path d="M868.694 166.6C866.485 166.6 864.694 164.809 864.694 162.6V33.0133C864.694 30.8042 862.903 29.0133 860.694 29.0133H816.421C814.212 29.0133 812.421 27.2225 812.421 25.0133V7.39999C812.421 5.19086 814.212 3.4 816.421 3.4H940C942.209 3.4 944 5.19086 944 7.4V25.0133C944 27.2225 942.209 29.0133 940 29.0133H895.727C893.518 29.0133 891.727 30.8042 891.727 33.0133V162.6C891.727 164.809 889.937 166.6 887.727 166.6H868.694Z" fill="url(#paint6_linear_761_18406)" fill-opacity="0.2"/>
<defs>
<linearGradient id="paint0_linear_761_18406" x1="471.5" y1="-74.3046" x2="471.5" y2="170" gradientUnits="userSpaceOnUse">
<stop stop-color="#4E72CC"/>
<stop offset="1" stop-color="#4E72CC" stop-opacity="0"/>
</linearGradient>
<linearGradient id="paint1_linear_761_18406" x1="471.5" y1="-74.3046" x2="471.5" y2="170" gradientUnits="userSpaceOnUse">
<stop stop-color="#4E72CC"/>
<stop offset="1" stop-color="#4E72CC" stop-opacity="0"/>
</linearGradient>
<linearGradient id="paint2_linear_761_18406" x1="471.5" y1="-74.3046" x2="471.5" y2="170" gradientUnits="userSpaceOnUse">
<stop stop-color="#4E72CC"/>
<stop offset="1" stop-color="#4E72CC" stop-opacity="0"/>
</linearGradient>
<linearGradient id="paint3_linear_761_18406" x1="471.5" y1="-74.3046" x2="471.5" y2="170" gradientUnits="userSpaceOnUse">
<stop stop-color="#4E72CC"/>
<stop offset="1" stop-color="#4E72CC" stop-opacity="0"/>
</linearGradient>
<linearGradient id="paint4_linear_761_18406" x1="471.5" y1="-74.3046" x2="471.5" y2="170" gradientUnits="userSpaceOnUse">
<stop stop-color="#4E72CC"/>
<stop offset="1" stop-color="#4E72CC" stop-opacity="0"/>
</linearGradient>
<linearGradient id="paint5_linear_761_18406" x1="471.5" y1="-74.3046" x2="471.5" y2="170" gradientUnits="userSpaceOnUse">
<stop stop-color="#4E72CC"/>
<stop offset="1" stop-color="#4E72CC" stop-opacity="0"/>
</linearGradient>
<linearGradient id="paint6_linear_761_18406" x1="471.5" y1="-74.3046" x2="471.5" y2="170" gradientUnits="userSpaceOnUse">
<stop stop-color="#4E72CC"/>
<stop offset="1" stop-color="#4E72CC" stop-opacity="0"/>
</linearGradient>
</defs>
</svg>
