<svg width="960" height="960" viewBox="0 0 960 960" fill="none" xmlns="http://www.w3.org/2000/svg">
<mask id="mask0_793_19534" style="mask-type:alpha" maskUnits="userSpaceOnUse" x="0" y="0" width="960" height="960">
<line x1="37.25" y1="2.75" x2="37.25" y2="959.75" stroke="white" stroke-width="0.5" stroke-linecap="round"/>
<line x1="480.25" y1="2.75" x2="480.25" y2="959.75" stroke="white" stroke-width="0.5" stroke-linecap="round"/>
<line x1="74.25" y1="2.75" x2="74.25" y2="959.75" stroke="white" stroke-width="0.5" stroke-linecap="round"/>
<line x1="517.25" y1="2.75" x2="517.25" y2="959.75" stroke="white" stroke-width="0.5" stroke-linecap="round"/>
<line x1="111.25" y1="2.75" x2="111.25" y2="959.75" stroke="white" stroke-width="0.5" stroke-linecap="round"/>
<line x1="554.25" y1="2.75" x2="554.25" y2="959.75" stroke="white" stroke-width="0.5" stroke-linecap="round"/>
<line x1="0.25" y1="74.3525" x2="959.75" y2="74.3525" stroke="white" stroke-width="0.5" stroke-linecap="round"/>
<line x1="0.25" y1="518.243" x2="959.75" y2="518.243" stroke="white" stroke-width="0.5" stroke-linecap="round"/>
<line x1="0.25" y1="296.311" x2="959.75" y2="296.311" stroke="white" stroke-width="0.5" stroke-linecap="round"/>
<line x1="0.25" y1="740.201" x2="959.75" y2="740.201" stroke="white" stroke-width="0.5" stroke-linecap="round"/>
<line x1="0.25" y1="111.346" x2="959.75" y2="111.346" stroke="white" stroke-width="0.5" stroke-linecap="round"/>
<line x1="0.25" y1="555.236" x2="959.75" y2="555.236" stroke="white" stroke-width="0.5" stroke-linecap="round"/>
<line x1="0.25" y1="333.304" x2="959.75" y2="333.304" stroke="white" stroke-width="0.5" stroke-linecap="round"/>
<line x1="0.25" y1="777.194" x2="959.75" y2="777.194" stroke="white" stroke-width="0.5" stroke-linecap="round"/>
<line x1="0.25" y1="148.339" x2="959.75" y2="148.339" stroke="white" stroke-width="0.5" stroke-linecap="round"/>
<line x1="0.25" y1="592.229" x2="959.75" y2="592.229" stroke="white" stroke-width="0.5" stroke-linecap="round"/>
<line x1="0.25" y1="370.297" x2="959.75" y2="370.297" stroke="white" stroke-width="0.5" stroke-linecap="round"/>
<line x1="0.25" y1="814.188" x2="959.75" y2="814.188" stroke="white" stroke-width="0.5" stroke-linecap="round"/>
<line x1="0.25" y1="185.332" x2="959.75" y2="185.332" stroke="white" stroke-width="0.5" stroke-linecap="round"/>
<line x1="0.25" y1="629.222" x2="959.75" y2="629.222" stroke="white" stroke-width="0.5" stroke-linecap="round"/>
<line x1="0.25" y1="407.29" x2="959.75" y2="407.29" stroke="white" stroke-width="0.5" stroke-linecap="round"/>
<line x1="0.25" y1="851.181" x2="959.75" y2="851.181" stroke="white" stroke-width="0.5" stroke-linecap="round"/>
<line x1="0.25" y1="222.325" x2="959.75" y2="222.325" stroke="white" stroke-width="0.5" stroke-linecap="round"/>
<line x1="0.25" y1="666.215" x2="959.75" y2="666.215" stroke="white" stroke-width="0.5" stroke-linecap="round"/>
<line x1="0.25" y1="444.283" x2="959.75" y2="444.283" stroke="white" stroke-width="0.5" stroke-linecap="round"/>
<line x1="0.25" y1="888.174" x2="959.75" y2="888.174" stroke="white" stroke-width="0.5" stroke-linecap="round"/>
<line x1="0.25" y1="259.318" x2="959.75" y2="259.318" stroke="white" stroke-width="0.5" stroke-linecap="round"/>
<line x1="0.25" y1="703.208" x2="959.75" y2="703.208" stroke="white" stroke-width="0.5" stroke-linecap="round"/>
<line x1="0.25" y1="481.276" x2="959.75" y2="481.276" stroke="white" stroke-width="0.5" stroke-linecap="round"/>
<line x1="0.25" y1="925.167" x2="959.75" y2="925.167" stroke="white" stroke-width="0.5" stroke-linecap="round"/>
<line x1="0.25" y1="37.3594" x2="959.75" y2="37.3594" stroke="white" stroke-width="0.5" stroke-linecap="round"/>
<line x1="147.75" y1="2.75" x2="147.75" y2="959.75" stroke="white" stroke-width="0.5" stroke-linecap="round"/>
<line x1="591.25" y1="2.75" x2="591.25" y2="959.75" stroke="white" stroke-width="0.5" stroke-linecap="round"/>
<line x1="184.75" y1="2.75" x2="184.75" y2="959.75" stroke="white" stroke-width="0.5" stroke-linecap="round"/>
<line x1="627.75" y1="2.75" x2="627.75" y2="959.75" stroke="white" stroke-width="0.5" stroke-linecap="round"/>
<line x1="221.75" y1="2.75" x2="221.75" y2="959.75" stroke="white" stroke-width="0.5" stroke-linecap="round"/>
<line x1="664.75" y1="2.75" x2="664.75" y2="959.75" stroke="white" stroke-width="0.5" stroke-linecap="round"/>
<line x1="258.75" y1="2.75" x2="258.75" y2="959.75" stroke="white" stroke-width="0.5" stroke-linecap="round"/>
<line x1="701.75" y1="2.75" x2="701.75" y2="959.75" stroke="white" stroke-width="0.5" stroke-linecap="round"/>
<line x1="295.75" y1="2.75" x2="295.75" y2="959.75" stroke="white" stroke-width="0.5" stroke-linecap="round"/>
<line x1="738.75" y1="2.75" x2="738.75" y2="959.75" stroke="white" stroke-width="0.5" stroke-linecap="round"/>
<line x1="332.75" y1="2.75" x2="332.75" y2="959.75" stroke="white" stroke-width="0.5" stroke-linecap="round"/>
<line x1="775.75" y1="2.75" x2="775.75" y2="959.75" stroke="white" stroke-width="0.5" stroke-linecap="round"/>
<line x1="369.25" y1="2.75" x2="369.25" y2="959.75" stroke="white" stroke-width="0.5" stroke-linecap="round"/>
<line x1="812.75" y1="2.75" x2="812.75" y2="959.75" stroke="white" stroke-width="0.5" stroke-linecap="round"/>
<line x1="406.25" y1="2.75" x2="406.25" y2="959.75" stroke="white" stroke-width="0.5" stroke-linecap="round"/>
<line x1="849.25" y1="2.75" x2="849.25" y2="959.75" stroke="white" stroke-width="0.5" stroke-linecap="round"/>
<line x1="443.25" y1="2.75" x2="443.25" y2="959.75" stroke="white" stroke-width="0.5" stroke-linecap="round"/>
<line x1="886.25" y1="2.75" x2="886.25" y2="959.75" stroke="white" stroke-width="0.5" stroke-linecap="round"/>
<line x1="923.25" y1="0.25" x2="923.25" y2="959.75" stroke="white" stroke-width="0.5" stroke-linecap="round"/>
</mask>
<g mask="url(#mask0_793_19534)">
<rect y="3" width="960" height="957" fill="url(#paint0_radial_793_19534)" fill-opacity="0.2"/>
</g>
<defs>
<radialGradient id="paint0_radial_793_19534" cx="0" cy="0" r="1" gradientUnits="userSpaceOnUse" gradientTransform="translate(480 481.5) rotate(90) scale(478.482 474.213)">
<stop stop-color="#4E72CC"/>
<stop offset="1" stop-color="#4E72CC" stop-opacity="0"/>
</radialGradient>
</defs>
</svg>
