<svg width="82" height="20" viewBox="0 0 82 20" fill="none" xmlns="http://www.w3.org/2000/svg">
<path d="M80.8476 18.7316C80.898 18.7321 80.948 18.7222 80.9944 18.7026C81.0408 18.683 81.0827 18.6541 81.1175 18.6176C81.1523 18.5811 81.1792 18.5379 81.1966 18.4906C81.2139 18.4433 81.2214 18.3929 81.2185 18.3426C81.2185 18.0667 81.0521 17.9349 80.7106 17.9349H80.1589V19.3793H80.3664V18.7497H80.6214L80.6272 18.7573L81.0229 19.3793H81.2449L80.8191 18.7356L80.8476 18.7316ZM80.6076 18.5869H80.367V18.0986H80.672C80.8295 18.0986 81.0091 18.1244 81.0091 18.3306C81.0091 18.5679 80.8274 18.5869 80.6064 18.5869M0.00308228 2.93873H3.0662V14.0963H8.73694V16.9231H0.00308228V2.93873ZM10.0912 7.44129H13.0338V16.9179H10.0912V7.44129ZM11.5625 2.72998C11.9001 2.73004 12.2301 2.83021 12.5108 3.01782C12.7915 3.20543 13.0102 3.47205 13.1394 3.78398C13.2685 4.09591 13.3023 4.43913 13.2364 4.77024C13.1705 5.10136 13.0079 5.40549 12.7692 5.6442C12.5304 5.8829 12.2262 6.04545 11.8951 6.11129C11.564 6.17714 11.2208 6.14331 10.9089 6.0141C10.597 5.88489 10.3304 5.66609 10.1428 5.38538C9.95526 5.10466 9.85515 4.77464 9.85515 4.43703C9.85515 4.21283 9.89931 3.99083 9.98512 3.7837C10.0709 3.57657 10.1967 3.38837 10.3552 3.22985C10.5138 3.07134 10.702 2.9456 10.9092 2.85983C11.1163 2.77406 11.3383 2.72994 11.5625 2.72998ZM25.3433 2.93658H28.286V11.294L31.621 7.437H35.2288L31.3666 11.8243L35.1476 16.9219H31.449L28.3252 12.2375H28.2866V16.9212H25.3439L25.3433 2.93658ZM14.6655 7.44221H17.4913V8.73729H17.5315C17.8138 8.25371 18.2221 7.85587 18.7128 7.58626C19.2035 7.31665 19.7583 7.18539 20.3178 7.20649C23.3019 7.20649 23.8512 9.1698 23.8512 11.7204V16.9173H20.9085V12.3099C20.9085 11.21 20.8883 9.79634 19.3759 9.79634C17.8463 9.79634 17.6103 10.9939 17.6103 12.2299V16.916H14.6676L14.6655 7.44221Z" fill="white" fill-opacity="0.2"/>
<path d="M41.4259 11.0774C41.4315 10.8386 41.3886 10.6012 41.2998 10.3796C41.211 10.1579 41.0781 9.95657 40.9092 9.78777C40.7402 9.61897 40.5388 9.48621 40.3171 9.39755C40.0954 9.30888 39.8579 9.26615 39.6192 9.27194C39.105 9.23995 38.5989 9.41129 38.2099 9.74902C37.8209 10.0868 37.5802 10.5638 37.5397 11.0774H41.4259ZM43.9185 15.2768C43.4296 15.8698 42.8148 16.3466 42.1188 16.6727C41.4228 16.9988 40.663 17.166 39.8945 17.1622C36.9518 17.1622 34.5958 15.198 34.5958 12.1564C34.5958 9.11469 36.9515 7.15139 39.8945 7.15139C42.6449 7.15139 44.3697 9.11316 44.3697 12.1564V13.079H37.5397C37.6248 13.6023 37.896 14.0772 38.3036 14.4162C38.7111 14.7552 39.2274 14.9356 39.7574 14.924C40.1763 14.9214 40.5878 14.8141 40.9546 14.6118C41.3214 14.4096 41.6318 14.1188 41.8575 13.7659L43.9185 15.2768ZM50.5033 9.73204C49.032 9.73204 48.1492 10.7145 48.1492 12.1459C48.1492 13.5774 49.0317 14.5608 50.5033 14.5608C51.975 14.5608 52.8596 13.5799 52.8596 12.1459C52.8596 10.712 51.9765 9.73204 50.5033 9.73204ZM55.5687 16.9161H52.8596V15.6593H52.8195C52.4796 16.1165 52.0388 16.489 51.5313 16.7478C51.0239 17.0066 50.4636 17.1448 49.894 17.1515C47.0666 17.1515 45.2041 15.111 45.2041 12.2253C45.2041 9.5751 46.8523 7.14158 49.5617 7.14158C50.7795 7.14158 51.917 7.47478 52.5844 8.39834H52.623V2.93573H55.5684L55.5687 16.9161ZM75.4344 16.9216H72.4917V12.3133C72.4917 11.2144 72.4721 9.79978 70.9612 9.79978C69.4286 9.79978 69.1941 10.9971 69.1941 12.2333V16.9213H66.2515V7.44474H69.0764V8.73981H69.1159C69.3987 8.25643 69.8072 7.85878 70.298 7.58921C70.7888 7.31964 71.3436 7.18825 71.9032 7.20902C74.8857 7.20902 75.4356 9.17079 75.4356 11.7229L75.4344 16.9216ZM62.9312 6.14935C62.5934 6.14942 62.2632 6.04932 61.9824 5.86173C61.7015 5.67414 61.4826 5.40748 61.3533 5.09547C61.224 4.78346 61.1901 4.44011 61.2559 4.10885C61.3218 3.77758 61.4844 3.47328 61.7231 3.23442C61.9619 2.99555 62.2662 2.83286 62.5974 2.76691C62.9286 2.70096 63.272 2.73471 63.5841 2.86391C63.8961 2.9931 64.1629 3.21193 64.3505 3.49272C64.5382 3.77351 64.6384 4.10365 64.6385 4.44139C64.6385 4.66564 64.5944 4.88771 64.5086 5.09491C64.4229 5.3021 64.2971 5.49038 64.1386 5.64898C63.98 5.80758 63.7918 5.93339 63.5846 6.01925C63.3775 6.1051 63.1554 6.14931 62.9312 6.14935ZM64.4025 16.9216H61.4568V7.44474H64.4025V16.9216ZM76.9014 0.00135256H59.9781C59.594 -0.00298214 59.2238 0.145357 58.949 0.413774C58.6742 0.68219 58.5173 1.04872 58.5126 1.43283V18.4264C58.5171 18.8107 58.674 19.1774 58.9488 19.4461C59.2236 19.7148 59.5938 19.8635 59.9781 19.8594H76.9014C77.2865 19.8642 77.6577 19.716 77.9336 19.4473C78.2095 19.1786 78.3674 18.8114 78.3727 18.4264V1.43161C78.3672 1.04674 78.2092 0.679786 77.9333 0.411376C77.6574 0.142966 77.2863 -0.0049495 76.9014 0.000126457M80.6328 17.2916C80.2747 17.295 79.9326 17.4401 79.6813 17.6951C79.43 17.9501 79.2898 18.2942 79.2916 18.6523C79.2933 19.0103 79.4367 19.3531 79.6905 19.6057C79.9443 19.8582 80.2877 20 80.6458 20C81.0038 20 81.3473 19.8582 81.6011 19.6057C81.8548 19.3531 81.9983 19.0103 82 18.6523C82.0017 18.2942 81.8616 17.9501 81.6103 17.6951C81.3589 17.4401 81.0168 17.295 80.6588 17.2916H80.6328ZM80.6328 19.845C80.3979 19.8489 80.1672 19.7831 79.9698 19.6558C79.7724 19.5286 79.6171 19.3457 79.5236 19.1303C79.4301 18.9148 79.4027 18.6765 79.4446 18.4454C79.4866 18.2143 79.5962 18.0009 79.7594 17.8321C79.9227 17.6632 80.1324 17.5466 80.362 17.497C80.5915 17.4473 80.8306 17.4669 81.0491 17.5531C81.2675 17.6394 81.4555 17.7885 81.5892 17.9816C81.7229 18.1746 81.7964 18.403 81.8003 18.6379V18.6578C81.8069 18.9658 81.6908 19.2639 81.4777 19.4864C81.2646 19.7089 80.9718 19.8377 80.6637 19.8443H80.6331" fill="white" fill-opacity="0.2"/>
</svg>
