<svg width="111" height="20" viewBox="0 0 111 20" fill="none" xmlns="http://www.w3.org/2000/svg">
<path d="M0 19.6L5.98185 0.4H10.6329L16.6148 19.6H13.3472L7.91871 2.37333H8.6302L3.26762 19.6H0ZM3.3335 15.44V12.44H13.2945V15.44H3.3335Z" fill="white"/>
<path d="M18.9969 19.6V0.4H22.2119L31.0134 13.9333V0.4H34.2283V19.6H31.0134L22.2119 6.06667V19.6H18.9969Z" fill="white"/>
<path d="M42.4704 19.6V3.41333H36.3304V0.4H51.7857V3.41333H45.6458V19.6H42.4704Z" fill="white"/>
<path d="M54.156 19.6V0.4H57.3314V19.6H54.156Z" fill="white"/>
<path d="M61.2781 19.6V0.4H68.8016C70.084 0.4 71.1337 0.662222 71.9506 1.18667C72.7763 1.70222 73.3868 2.36444 73.7821 3.17333C74.1861 3.98222 74.3881 4.81778 74.3881 5.68C74.3881 6.73778 74.1378 7.63556 73.6371 8.37333C73.1452 9.11111 72.4732 9.60889 71.6212 9.86667V9.2C72.8158 9.47556 73.7206 10.0489 74.3354 10.92C74.9591 11.7911 75.2709 12.7822 75.2709 13.8933C75.2709 15.0311 75.0557 16.0267 74.6253 16.88C74.1949 17.7333 73.5537 18.4 72.7016 18.88C71.8584 19.36 70.8131 19.6 69.5658 19.6H61.2781ZM64.4931 16.5733H69.1705C69.7239 16.5733 70.2202 16.4622 70.6594 16.24C71.0986 16.0089 71.4411 15.6889 71.6871 15.28C71.9418 14.8622 72.0692 14.3689 72.0692 13.8C72.0692 13.2844 71.9594 12.8222 71.7398 12.4133C71.5202 12.0044 71.1996 11.68 70.778 11.44C70.3563 11.1911 69.8512 11.0667 69.2627 11.0667H64.4931V16.5733ZM64.4931 8.06667H68.762C69.2188 8.06667 69.6273 7.97778 69.9874 7.8C70.3475 7.62222 70.633 7.36 70.8438 7.01333C71.0546 6.66667 71.16 6.24 71.16 5.73333C71.16 5.06667 70.9492 4.51111 70.5276 4.06667C70.106 3.62222 69.5175 3.4 68.762 3.4H64.4931V8.06667Z" fill="white"/>
<path d="M85.9265 20C84.0292 20 82.4042 19.5822 81.0514 18.7467C79.6987 17.9022 78.6578 16.7289 77.9287 15.2267C77.2085 13.7244 76.8483 11.9822 76.8483 10C76.8483 8.01778 77.2085 6.27556 77.9287 4.77333C78.6578 3.27111 79.6987 2.10222 81.0514 1.26666C82.4042 0.422221 84.0292 0 85.9265 0C87.8238 0 89.4489 0.422221 90.8016 1.26666C92.1631 2.10222 93.204 3.27111 93.9243 4.77333C94.6533 6.27556 95.0179 8.01778 95.0179 10C95.0179 11.9822 94.6533 13.7244 93.9243 15.2267C93.204 16.7289 92.1631 17.9022 90.8016 18.7467C89.4489 19.5822 87.8238 20 85.9265 20ZM85.9265 16.9733C87.2002 16.9822 88.2586 16.6978 89.1019 16.12C89.9539 15.5422 90.5908 14.7289 91.0124 13.68C91.4428 12.6311 91.658 11.4044 91.658 10C91.658 8.59556 91.4428 7.37778 91.0124 6.34667C90.5908 5.30667 89.9539 4.49778 89.1019 3.92C88.2586 3.34222 87.2002 3.04444 85.9265 3.02667C84.6528 3.01778 83.5944 3.30222 82.7511 3.88C81.9079 4.45778 81.271 5.27111 80.8406 6.32C80.419 7.36889 80.2082 8.59556 80.2082 10C80.2082 11.4044 80.419 12.6267 80.8406 13.6667C81.2623 14.6978 81.8947 15.5022 82.7379 16.08C83.59 16.6578 84.6528 16.9556 85.9265 16.9733Z" fill="white"/>
<path d="M101.685 19.6V3.41333H95.5447V0.4H111V3.41333H104.86V19.6H101.685Z" fill="white"/>
</svg>
